<?xml version="1.0" encoding="UTF-8"?>
<svg width="512" height="512" viewBox="0 0 512 512" fill="none" xmlns="http://www.w3.org/2000/svg">
    <!-- GitHub-style Octocat silhouette -->
    <path d="M256 96C168.8 96 98 166.8 98 254C98 323.6 142.4 382 204.4 402.4C212.4 403.8 215.2 398.8 215.2 394.6C215.2 390.8 215 378.6 215 363.8C172 373.2 162.8 345.6 162.8 345.6C155.8 326.8 145.8 321.8 145.8 321.8C132.2 311.6 146.6 311.8 146.6 311.8C161.4 312.8 169.4 328.4 169.4 328.4C182.6 354.4 205.8 346.2 215.6 342.2C217 331.2 221 323.8 225.4 319.8C191 315.8 155 300.8 155 241.6C155 223.2 161 208.2 169.6 196.4C168 192.4 162.8 174.8 170.4 151.2C170.4 151.2 183.2 146.8 214.8 168.2C227.6 164.6 241.8 162.8 256 162.8C270.2 162.8 284.4 164.6 297.2 168.2C328.8 146.8 341.6 151.2 341.6 151.2C349.2 174.8 344 192.4 342.4 196.4C351 208.2 357 223.2 357 241.6C357 301 320.8 315.6 286.2 319.4C291.8 324.2 296.8 333.6 296.8 348.2C296.8 369.4 296.6 389.4 296.6 394.6C296.6 398.8 299.4 403.8 307.6 402.4C369.6 382 414 323.6 414 254C414 166.8 343.2 96 256 96Z" 
          fill="white"/>
    
    <!-- Search Magnifying Glass -->
    <circle cx="360" cy="360" r="60" fill="#FFC107" stroke="white" stroke-width="16"/>
    <path d="M405 405L440 440" stroke="white" stroke-width="24" stroke-linecap="round"/>
</svg> 